<?xml version="1.0" encoding="iso-8859-1"?>
<!-- Generator: Adobe Illustrator 19.0.0, SVG Export Plug-In . SVG Version: 6.00 Build 0)  -->
<svg version="1.1" id="Capa_1" xmlns="http://www.w3.org/2000/svg" xmlns:xlink="http://www.w3.org/1999/xlink" x="0px" y="0px"
	 viewBox="0 0 512 512" style="enable-background:new 0 0 512 512;" xml:space="preserve">
<g>
	<path style="fill:#C03A2B;" d="M397.241,432.552h97.103c9.751,0,17.655-7.905,17.655-17.655V97.103
		c0-9.751-7.905-17.655-17.655-17.655H17.655C7.904,79.448,0,87.353,0,97.103v317.793c0,9.751,7.904,17.655,17.655,17.655H397.241z"
		/>
	<polygon style="fill:#F0C419;" points="344.717,370.759 512,370.759 512,141.241 0,141.241 0,370.759 167.283,370.759 	"/>
	<rect x="123.586" y="238.345" style="fill:#FFFFFF;" width="35.31" height="35.31"/>
	<rect x="88.276" y="238.345" style="fill:#D75E72;" width="35.31" height="35.31"/>
	<path style="fill:#F0C419;" d="M158.897,273.655l0,17.655c0.009,7.027-2.778,13.768-7.746,18.736
		c-4.969,4.969-11.71,7.756-18.736,7.746h-17.655c-7.027,0.009-13.768-2.778-18.736-7.746c-4.969-4.969-7.756-11.71-7.746-18.736
		l0-17.655H158.897z"/>
	<path style="fill:#D75E72;" d="M158.897,273.655v17.655c0,14.626-5.928,26.483-13.241,26.483h-22.069v-44.138H158.897z"/>
	<g>
		<path style="fill:#F0C419;" d="M123.586,220.69v17.655h-35.31c-4.869-0.015-8.813-3.958-8.828-8.828v-8.828
			c0.028-9.739,7.916-17.627,17.655-17.655h8.828C115.672,203.058,123.562,210.949,123.586,220.69z"/>
		<path style="fill:#F0C419;" d="M167.724,220.69v8.828c-0.015,4.869-3.958,8.813-8.828,8.828h-35.31V220.69
			c0.024-9.741,7.914-17.631,17.655-17.655h8.828C159.808,203.063,167.696,210.951,167.724,220.69z"/>
	</g>
	<g>
		<path style="fill:#FFFFFF;" d="M61.793,326.621H44.138c-4.875,0-8.828-3.952-8.828-8.828s3.952-8.828,8.828-8.828v-70.621
			c0-4.875,3.952-8.828,8.828-8.828s8.828,3.952,8.828,8.828v70.621c4.875,0,8.828,3.952,8.828,8.828S66.668,326.621,61.793,326.621
			z"/>
		<path style="fill:#FFFFFF;" d="M203.034,326.621h-17.655c-4.875,0-8.828-3.952-8.828-8.828s3.952-8.828,8.828-8.828v-70.621
			c0-4.875,3.952-8.828,8.828-8.828s8.828,3.952,8.828,8.828v70.621c4.875,0,8.828,3.952,8.828,8.828
			S207.91,326.621,203.034,326.621z"/>
	</g>
	<path style="fill:#C03A2B;" d="M150.069,194.207h-8.828c-3.014,0.03-6.001,0.58-8.828,1.627v-10.454
		c0-4.875-3.952-8.828-8.828-8.828c-4.875,0-8.828,3.952-8.828,8.828v10.454c-2.827-1.047-5.813-1.597-8.828-1.627h-8.828
		c-14.619,0.016-26.467,11.863-26.483,26.483v8.828c0.02,6.278,3.384,12.07,8.828,15.199v46.594
		c0.021,19.493,15.818,35.29,35.31,35.31h17.655c19.493-0.021,35.29-15.818,35.31-35.31v-46.594
		c5.443-3.129,8.807-8.921,8.828-15.199v-8.828C176.536,206.07,164.688,194.223,150.069,194.207z M141.241,211.862h8.828
		c4.873,0.005,8.823,3.954,8.828,8.828v8.828h-26.483v-8.828C132.419,215.816,136.368,211.867,141.241,211.862z M150.069,264.828
		h-17.655v-17.655h17.655V264.828z M114.759,264.828H97.103v-17.655h17.655V264.828z M88.276,220.69
		c0.005-4.873,3.954-8.823,8.828-8.828h8.828c4.873,0.005,8.823,3.954,8.828,8.828v8.828H88.276V220.69z M97.103,291.31v-8.828
		h17.655v26.483C105.013,308.954,97.115,301.056,97.103,291.31z M132.414,308.966v-26.483h17.655v8.828
		C150.058,301.056,142.16,308.954,132.414,308.966z"/>
</g>
<g>
</g>
<g>
</g>
<g>
</g>
<g>
</g>
<g>
</g>
<g>
</g>
<g>
</g>
<g>
</g>
<g>
</g>
<g>
</g>
<g>
</g>
<g>
</g>
<g>
</g>
<g>
</g>
<g>
</g>
</svg>
