<svg width="18" height="19" viewBox="0 0 18 19" fill="none" xmlns="http://www.w3.org/2000/svg">
<path fill-rule="evenodd" clip-rule="evenodd" d="M12.8645 11.3807H12.0515L11.7633 11.1026C12.7719 9.92812 13.3791 8.4034 13.3791 6.74475C13.3791 3.04627 10.3842 0.0483398 6.68954 0.0483398C2.99485 0.0483398 0 3.04627 0 6.74475C0 10.4432 2.99485 13.4412 6.68954 13.4412C8.34648 13.4412 9.86964 12.8333 11.0429 11.8237L11.3208 12.1122V12.9261L16.4666 18.0668L18 16.5318L12.8645 11.3807ZM6.68954 11.3807C4.12693 11.3807 2.05832 9.30999 2.05832 6.74475C2.05832 4.17951 4.12693 2.10877 6.68954 2.10877C9.25214 2.10877 11.3208 4.17951 11.3208 6.74475C11.3208 9.30999 9.25214 11.3807 6.68954 11.3807Z" fill="#011627"/>
</svg>
