<svg width="72" height="21" viewBox="0 0 72 21" fill="none" xmlns="http://www.w3.org/2000/svg">
<path d="M13.7056 4.4786C13.1118 4.81752 12.6842 5.25328 12.3992 5.81008C12.1142 6.34267 11.9716 6.89947 11.9716 7.48047V15.9535H15.8434V7.74677C15.8434 7.2626 16.1047 7.02051 16.6273 7.02051H18.5988L19.3589 3.97022H15.9384C15.0358 3.97022 14.2757 4.13968 13.7056 4.4786ZM39.9292 15.9535H43.801V5.5922H39.9292V15.9535ZM9.78634 5.0354C9.00248 4.30914 7.98109 3.97022 6.69842 3.97022C5.53451 3.97022 3.15918 3.97022 -2.89957e-06 3.99443C-2.89957e-06 4.7449 -2.89957e-06 20.0206 -2.89957e-06 20.0206H3.87178V15.9293C6.15209 16.0745 8.40865 15.7114 9.78634 14.1621C10.2614 13.6537 10.6177 13.0969 10.7602 12.3706C10.9027 11.6444 10.974 11.6202 10.974 10.555V9.46559C10.974 8.4004 10.9027 7.52889 10.7602 6.80263C10.6177 6.10058 10.2852 5.49536 9.78634 5.0354ZM6.98346 12.1527C6.69842 12.6369 6.12834 13.0727 5.34448 13.0727C4.20432 13.0727 3.84803 13.0485 3.84803 13.0485V6.94788L4.08556 6.85105C4.60813 6.85105 5.43949 6.82684 5.93831 6.82684C7.12597 6.82684 7.43477 7.69835 7.43477 9.63504C7.43477 10.7728 7.2685 11.6686 6.98346 12.1527ZM33.2308 0.508381C32.637 0.847302 32.2094 1.28306 31.9244 1.83986C31.6393 2.37245 31.4968 2.92925 31.4968 3.51026V15.9535H35.3686V8.3762H38.2665V5.5922H35.3686V3.77655C35.3686 3.29238 35.6299 3.05029 36.1524 3.05029H38.2665V1.47758e-06H35.4398C34.561 1.47758e-06 33.8246 0.16946 33.2308 0.508381ZM28.9077 5.47116C28.4564 5.0354 27.9101 4.67227 27.2212 4.38177C26.5561 4.09126 25.7485 3.94601 24.7984 3.94601C23.8483 3.94601 23.0644 4.09126 22.3756 4.38177C21.7105 4.67227 21.1404 5.0354 20.7128 5.47116C20.3565 5.83429 20.0952 6.22162 19.8815 6.60896C19.6677 7.02051 19.5252 7.48048 19.4539 8.01307C19.3589 8.54566 19.3351 9.19929 19.3351 10.0224C19.3351 10.8455 19.3827 11.4991 19.4539 12.0317C19.5489 12.5643 19.6914 13.0243 19.8815 13.4358C20.0952 13.8474 20.3565 14.2105 20.7128 14.5736C21.7105 15.5904 23.0882 16.0988 24.7984 16.0988C26.5086 16.0988 27.8626 15.5904 28.8839 14.5736C29.4065 14.041 29.7628 13.4358 29.9766 12.7822C30.1666 12.1285 30.2854 11.2086 30.2854 10.0224C30.2854 8.86037 30.1904 7.94044 29.9766 7.28681C29.8103 6.60896 29.4303 6.00375 28.9077 5.47116ZM26.3186 11.6202C26.2473 11.9833 26.1048 12.2738 25.8673 12.4917C25.6298 12.7095 25.2972 12.8306 24.8221 12.8306C24.3708 12.8306 24.0145 12.7095 23.777 12.4917C23.5395 12.2738 23.3969 11.9591 23.3257 11.5717C23.2544 11.1844 23.2069 10.676 23.2069 10.0466C23.2069 9.41717 23.2544 8.90879 23.3257 8.49724C23.3969 8.1099 23.5395 7.79518 23.777 7.57731C24.0145 7.35943 24.3708 7.23839 24.8221 7.23839C25.2735 7.23839 25.6298 7.35943 25.8673 7.57731C26.1048 7.77098 26.2473 8.06148 26.3186 8.44882C26.3899 8.83616 26.4374 9.36875 26.4374 10.0466C26.4136 10.7002 26.3899 11.2328 26.3186 11.6202ZM43.7772 1.47758e-06H39.8817V3.02608H43.7772V1.47758e-06ZM52.0671 8.3762V5.5922H49.288V1.04097L45.4162 2.08194V12.4432C45.4162 13.0243 45.5587 13.5811 45.8438 14.1136C46.1288 14.6462 46.5564 15.1062 47.1502 15.4451C47.744 15.784 48.4804 15.9535 49.3592 15.9535H52.0671V12.9032H50.0718C49.5493 12.9032 49.288 12.6611 49.288 12.177V8.3762H52.0671Z" fill="black"/>
<path d="M70.9273 9.68345L62.5424 1.162C61.9485 0.556787 60.8084 0.121034 59.977 0.121034H55.1076C54.2762 0.121034 53.4924 0.726251 53.4924 1.57355V6.56054C53.4924 7.18996 53.8012 7.96464 54.1575 8.59406C54.3475 7.33521 54.8701 6.31845 55.6539 5.51956C56.6991 4.45438 58.0767 3.92179 59.787 3.92179C60.9746 3.92179 62.0198 4.16388 62.8749 4.67226C63.73 5.18064 64.4426 5.83428 64.8939 6.68158C65.3452 7.52888 65.6065 8.49723 65.6065 9.56241V11.2812H57.9105C57.9105 11.7654 58.1005 12.1769 58.5043 12.5401C58.9081 12.9032 59.4544 13.0485 60.1433 13.0485C60.7846 13.0485 61.2834 12.9516 61.6635 12.8064C62.0198 12.6611 62.3998 12.3948 62.7561 12.0559L65.084 14.2105C64.3951 14.8641 63.6825 15.3483 62.9462 15.6388C62.4711 15.8325 61.9248 15.9535 61.2834 16.0261L63.0412 17.8176C63.3025 18.0839 63.7063 18.2533 64.0863 18.2533C64.4664 18.2533 64.8702 18.0839 65.1552 17.8176L70.9035 11.9106C71.1648 11.6443 71.3311 11.2328 71.3311 10.8213C71.3548 10.3613 71.1885 9.97396 70.9273 9.68345Z" fill="#FF9F1C"/>
<path d="M60.8562 7.11731C60.5711 6.94785 60.2148 6.85101 59.7873 6.85101C59.3597 6.85101 59.0034 6.94785 58.7184 7.11731C58.4333 7.28677 58.2196 7.55306 58.1245 7.81936C57.982 8.08565 57.9108 8.30353 57.9108 8.7877H61.6875C61.6875 8.30353 61.6163 8.08565 61.4737 7.81936C61.355 7.57727 61.1412 7.28677 60.8562 7.11731Z" fill="#FF9F1C"/>
</svg>
