<svg width="54" height="32" viewBox="0 0 54 32" fill="none" xmlns="http://www.w3.org/2000/svg">
<path d="M35.0669 21.2925H33.3376V27.1386C33.3376 27.2481 33.2424 27.3418 33.1313 27.3418H31.7986C31.6876 27.3418 31.5924 27.2481 31.5924 27.1386V21.2925H29.8472C29.7996 21.2925 29.7362 21.2769 29.7044 21.2456C29.6727 21.2144 29.641 21.1675 29.641 21.105V20.0733C29.641 20.0264 29.6568 19.9639 29.7044 19.9326C29.7362 19.9013 29.7996 19.8701 29.8472 19.8857H35.0669C35.1779 19.8857 35.2731 19.9639 35.2731 20.0733V21.105C35.2731 21.2144 35.1779 21.2925 35.0669 21.2925Z" fill="white"/>
<path d="M40.6197 27.295C39.9375 27.3887 39.2394 27.4356 38.5572 27.42C37.2404 27.42 36.0823 27.0918 36.0823 25.2629V21.9334C36.0823 20.1046 37.2563 19.7919 38.5731 19.7919C39.2553 19.7763 39.9375 19.8232 40.6197 19.917C40.7625 19.9326 40.826 19.9951 40.826 20.1202V21.0581C40.826 21.1675 40.7308 21.2613 40.6197 21.2613H38.4779C38.002 21.2613 37.8274 21.4176 37.8274 21.9491V22.8557H40.5404C40.6515 22.8557 40.7467 22.9495 40.7467 23.0589V24.0124C40.7467 24.1218 40.6515 24.2156 40.5404 24.2156H37.8274V25.2785C37.8274 25.7944 38.002 25.9663 38.4779 25.9663H40.6197C40.7308 25.9663 40.826 26.0601 40.826 26.1695V27.1074C40.826 27.2168 40.7625 27.2793 40.6197 27.295Z" fill="white"/>
<path d="M48.2985 27.3419H46.6803C46.5692 27.3575 46.4581 27.295 46.4106 27.1855L44.9985 24.9972L43.7293 27.1386C43.6659 27.2637 43.5865 27.3419 43.4755 27.3419H41.9683C41.9365 27.3419 41.889 27.3419 41.8572 27.3106C41.8255 27.2793 41.8096 27.2481 41.8096 27.2012C41.8096 27.1699 41.8255 27.1543 41.8255 27.1386L44.0308 23.5122L41.7938 20.0733C41.7779 20.0577 41.7779 20.0264 41.7779 20.0108C41.7779 19.9326 41.8572 19.8701 41.9366 19.8857H43.6024C43.7135 19.8857 43.7928 19.9795 43.8562 20.0733L45.1572 22.1054L46.4264 20.0733C46.474 19.9639 46.5692 19.9014 46.6803 19.8857H48.1875C48.2668 19.8857 48.3461 19.9326 48.3461 20.0108C48.3461 20.0264 48.3302 20.0577 48.3302 20.0733L46.1091 23.5434L48.4254 27.1386C48.4413 27.1699 48.4572 27.2012 48.4572 27.2324C48.4413 27.295 48.3937 27.3419 48.2985 27.3419Z" fill="white"/>
<path d="M27.1977 19.9014C27.1184 19.9014 27.0549 19.9483 27.039 20.0264L25.5636 25.4192C25.5477 25.5286 25.516 25.5755 25.4208 25.5755C25.3256 25.5755 25.2939 25.5286 25.278 25.4192L23.8025 20.0264C23.7867 19.9483 23.7232 19.9014 23.6439 19.9014H22.1843C22.1367 19.9014 22.0891 19.917 22.0574 19.9639C22.0256 19.9951 22.0098 20.042 22.0256 20.0889C22.0256 20.0889 23.8343 26.2789 23.8501 26.3415C24.0881 27.0761 24.6751 27.4356 25.4208 27.4356C26.1347 27.4669 26.7852 27.0136 26.9915 26.3415C27.0232 26.2633 28.7842 20.0889 28.7842 20.0889C28.8001 20.042 28.7842 19.9951 28.7525 19.9639C28.7208 19.9326 28.6732 19.9014 28.6256 19.9014H27.1977Z" fill="white"/>
<path d="M18.9478 14.8837H3.7647C3.20942 14.8837 2.70173 15.1807 2.43202 15.634C2.14645 16.1029 2.13058 16.6813 2.38442 17.1502L3.90749 19.9951H1.14693C0.797898 19.9951 0.464727 20.1671 0.274344 20.4641C0.0839607 20.7611 0.0839606 21.1362 0.242613 21.4488L5.12912 30.5463C5.30363 30.8745 5.65267 31.0777 6.01757 31.0777C6.38247 31.0777 6.73151 30.8745 6.90603 30.5463L8.23871 28.0765L9.90456 31.1871C10.1743 31.6873 10.7137 32 11.2848 32C11.856 32 12.3954 31.6873 12.6651 31.1871L20.2805 17.0721C20.5343 16.6031 20.5184 16.0404 20.2329 15.6027C19.979 15.1494 19.4872 14.8837 18.9478 14.8837ZM12.1574 20.8392L8.82572 26.998C8.71467 27.2168 8.49255 27.3418 8.23871 27.3418C7.98487 27.3418 7.76275 27.2012 7.65169 26.998L4.36758 20.9017C4.27239 20.7142 4.27239 20.4953 4.38345 20.3078C4.49451 20.1202 4.70075 20.0108 4.907 20.0108H11.6339C11.8401 20.0108 12.0305 20.1046 12.1257 20.2765C12.2526 20.4484 12.2526 20.6673 12.1574 20.8392Z" fill="white"/>
<path d="M2.7 2C3.67333 2 4.42 2.18667 4.94 2.56C5.46667 2.92667 5.73 3.47667 5.73 4.21C5.73 4.61 5.65667 4.95333 5.51 5.24C5.37 5.52 5.16333 5.75 4.89 5.93C4.62333 6.10333 4.29667 6.23 3.91 6.31C3.52333 6.39 3.08667 6.43 2.6 6.43H1.83V9H0.86V2.17C1.13333 2.10333 1.43667 2.06 1.77 2.04C2.11 2.01333 2.42 2 2.7 2ZM2.78 2.85C2.36667 2.85 2.05 2.86 1.83 2.88V5.6H2.56C2.89333 5.6 3.19333 5.58 3.46 5.54C3.72667 5.49333 3.95 5.42 4.13 5.32C4.31667 5.21333 4.46 5.07 4.56 4.89C4.66 4.71 4.71 4.48 4.71 4.2C4.71 3.93333 4.65667 3.71333 4.55 3.54C4.45 3.36667 4.31 3.23 4.13 3.13C3.95667 3.02333 3.75333 2.95 3.52 2.91C3.28667 2.87 3.04 2.85 2.78 2.85ZM11.2591 6.4C11.2591 6.81333 11.1991 7.18667 11.0791 7.52C10.9591 7.85333 10.7891 8.14 10.5691 8.38C10.3558 8.62 10.0991 8.80667 9.79914 8.94C9.49914 9.06667 9.17247 9.13 8.81914 9.13C8.46581 9.13 8.13914 9.06667 7.83914 8.94C7.53914 8.80667 7.27914 8.62 7.05914 8.38C6.84581 8.14 6.67914 7.85333 6.55914 7.52C6.43914 7.18667 6.37914 6.81333 6.37914 6.4C6.37914 5.99333 6.43914 5.62333 6.55914 5.29C6.67914 4.95 6.84581 4.66 7.05914 4.42C7.27914 4.18 7.53914 3.99667 7.83914 3.87C8.13914 3.73667 8.46581 3.67 8.81914 3.67C9.17247 3.67 9.49914 3.73667 9.79914 3.87C10.0991 3.99667 10.3558 4.18 10.5691 4.42C10.7891 4.66 10.9591 4.95 11.0791 5.29C11.1991 5.62333 11.2591 5.99333 11.2591 6.4ZM10.2891 6.4C10.2891 5.81333 10.1558 5.35 9.88914 5.01C9.62914 4.66333 9.27247 4.49 8.81914 4.49C8.36581 4.49 8.00581 4.66333 7.73914 5.01C7.47914 5.35 7.34914 5.81333 7.34914 6.4C7.34914 6.98667 7.47914 7.45333 7.73914 7.8C8.00581 8.14 8.36581 8.31 8.81914 8.31C9.27247 8.31 9.62914 8.14 9.88914 7.8C10.1558 7.45333 10.2891 6.98667 10.2891 6.4ZM16.6906 9C16.504 8.52 16.304 7.97333 16.0906 7.36C15.884 6.74 15.694 6.09667 15.5206 5.43C15.3473 6.09667 15.1573 6.74 14.9506 7.36C14.744 7.97333 14.5473 8.52 14.3606 9H13.5506C13.244 8.31333 12.944 7.53 12.6506 6.65C12.3573 5.77 12.0806 4.82 11.8206 3.8H12.8206C12.8873 4.11333 12.9673 4.45333 13.0606 4.82C13.154 5.18667 13.2506 5.55333 13.3506 5.92C13.4573 6.28667 13.5673 6.64 13.6806 6.98C13.794 7.32 13.9006 7.61667 14.0006 7.87C14.114 7.55667 14.224 7.22667 14.3306 6.88C14.444 6.52667 14.5506 6.17333 14.6506 5.82C14.7506 5.46 14.844 5.11 14.9306 4.77C15.024 4.42333 15.104 4.1 15.1706 3.8H15.9406C16.0006 4.1 16.074 4.42333 16.1606 4.77C16.2473 5.11 16.3406 5.46 16.4406 5.82C16.5406 6.17333 16.644 6.52667 16.7506 6.88C16.864 7.22667 16.9773 7.55667 17.0906 7.87C17.1906 7.61667 17.294 7.32 17.4006 6.98C17.514 6.64 17.624 6.28667 17.7306 5.92C17.8373 5.55333 17.9373 5.18667 18.0306 4.82C18.124 4.45333 18.204 4.11333 18.2706 3.8H19.2306C18.9706 4.82 18.694 5.77 18.4006 6.65C18.1073 7.53 17.8073 8.31333 17.5006 9H16.6906ZM19.9241 6.41C19.9241 5.95 19.9907 5.55 20.1241 5.21C20.2574 4.86333 20.4341 4.57667 20.6541 4.35C20.8741 4.12333 21.1274 3.95333 21.4141 3.84C21.7007 3.72667 21.9941 3.67 22.2941 3.67C22.9941 3.67 23.5307 3.89 23.9041 4.33C24.2774 4.76333 24.4641 5.42667 24.4641 6.32C24.4641 6.36 24.4641 6.41333 24.4641 6.48C24.4641 6.54 24.4607 6.59667 24.4541 6.65H20.8941C20.9341 7.19 21.0907 7.6 21.3641 7.88C21.6374 8.16 22.0641 8.3 22.6441 8.3C22.9707 8.3 23.2441 8.27333 23.4641 8.22C23.6907 8.16 23.8607 8.10333 23.9741 8.05L24.1041 8.83C23.9907 8.89 23.7907 8.95333 23.5041 9.02C23.2241 9.08667 22.9041 9.12 22.5441 9.12C22.0907 9.12 21.6974 9.05333 21.3641 8.92C21.0374 8.78 20.7674 8.59 20.5541 8.35C20.3407 8.11 20.1807 7.82667 20.0741 7.5C19.9741 7.16667 19.9241 6.80333 19.9241 6.41ZM23.4941 5.9C23.5007 5.48 23.3941 5.13667 23.1741 4.87C22.9607 4.59667 22.6641 4.46 22.2841 4.46C22.0707 4.46 21.8807 4.50333 21.7141 4.59C21.5541 4.67 21.4174 4.77667 21.3041 4.91C21.1907 5.04333 21.1007 5.19667 21.0341 5.37C20.9741 5.54333 20.9341 5.72 20.9141 5.9H23.4941ZM27.72 3.69C27.8 3.69 27.89 3.69667 27.99 3.71C28.0967 3.71667 28.2 3.73 28.3 3.75C28.4 3.76333 28.49 3.78 28.57 3.8C28.6567 3.81333 28.72 3.82667 28.76 3.84L28.6 4.65C28.5267 4.62333 28.4033 4.59333 28.23 4.56C28.0633 4.52 27.8467 4.5 27.58 4.5C27.4067 4.5 27.2333 4.52 27.06 4.56C26.8933 4.59333 26.7833 4.61667 26.73 4.63V9H25.8V4.02C26.02 3.94 26.2933 3.86667 26.62 3.8C26.9467 3.72667 27.3133 3.69 27.72 3.69ZM29.3674 6.41C29.3674 5.95 29.4341 5.55 29.5674 5.21C29.7008 4.86333 29.8774 4.57667 30.0974 4.35C30.3174 4.12333 30.5708 3.95333 30.8574 3.84C31.1441 3.72667 31.4374 3.67 31.7374 3.67C32.4374 3.67 32.9741 3.89 33.3474 4.33C33.7208 4.76333 33.9074 5.42667 33.9074 6.32C33.9074 6.36 33.9074 6.41333 33.9074 6.48C33.9074 6.54 33.9041 6.59667 33.8974 6.65H30.3374C30.3774 7.19 30.5341 7.6 30.8074 7.88C31.0808 8.16 31.5074 8.3 32.0874 8.3C32.4141 8.3 32.6874 8.27333 32.9074 8.22C33.1341 8.16 33.3041 8.10333 33.4174 8.05L33.5474 8.83C33.4341 8.89 33.2341 8.95333 32.9474 9.02C32.6674 9.08667 32.3474 9.12 31.9874 9.12C31.5341 9.12 31.1408 9.05333 30.8074 8.92C30.4808 8.78 30.2108 8.59 29.9974 8.35C29.7841 8.11 29.6241 7.82667 29.5174 7.5C29.4174 7.16667 29.3674 6.80333 29.3674 6.41ZM32.9374 5.9C32.9441 5.48 32.8374 5.13667 32.6174 4.87C32.4041 4.59667 32.1074 4.46 31.7274 4.46C31.5141 4.46 31.3241 4.50333 31.1574 4.59C30.9974 4.67 30.8608 4.77667 30.7474 4.91C30.6341 5.04333 30.5441 5.19667 30.4774 5.37C30.4174 5.54333 30.3774 5.72 30.3574 5.9H32.9374ZM38.6034 4.9C38.49 4.80667 38.3267 4.71667 38.1134 4.63C37.9 4.54333 37.6667 4.5 37.4134 4.5C37.1467 4.5 36.9167 4.55 36.7234 4.65C36.5367 4.74333 36.3834 4.87667 36.2634 5.05C36.1434 5.21667 36.0567 5.41667 36.0034 5.65C35.95 5.88333 35.9234 6.13333 35.9234 6.4C35.9234 7.00667 36.0734 7.47667 36.3734 7.81C36.6734 8.13667 37.0734 8.3 37.5734 8.3C37.8267 8.3 38.0367 8.29 38.2034 8.27C38.3767 8.24333 38.51 8.21667 38.6034 8.19V4.9ZM38.6034 1.4L39.5334 1.24V8.85C39.32 8.91 39.0467 8.97 38.7134 9.03C38.38 9.09 37.9967 9.12 37.5634 9.12C37.1634 9.12 36.8034 9.05667 36.4834 8.93C36.1634 8.80333 35.89 8.62333 35.6634 8.39C35.4367 8.15667 35.26 7.87333 35.1334 7.54C35.0134 7.2 34.9534 6.82 34.9534 6.4C34.9534 6 35.0034 5.63333 35.1034 5.3C35.21 4.96667 35.3634 4.68 35.5634 4.44C35.7634 4.2 36.0067 4.01333 36.2934 3.88C36.5867 3.74667 36.92 3.68 37.2934 3.68C37.5934 3.68 37.8567 3.72 38.0834 3.8C38.3167 3.88 38.49 3.95667 38.6034 4.03V1.4ZM44.3765 4.03C44.4898 3.95667 44.6598 3.88 44.8865 3.8C45.1198 3.72 45.3865 3.68 45.6865 3.68C46.0598 3.68 46.3898 3.74667 46.6765 3.88C46.9698 4.01333 47.2165 4.2 47.4165 4.44C47.6165 4.68 47.7665 4.96667 47.8665 5.3C47.9732 5.63333 48.0265 6 48.0265 6.4C48.0265 6.82 47.9632 7.2 47.8365 7.54C47.7165 7.87333 47.5432 8.15667 47.3165 8.39C47.0898 8.62333 46.8165 8.80333 46.4965 8.93C46.1765 9.05667 45.8165 9.12 45.4165 9.12C44.9832 9.12 44.5998 9.09 44.2665 9.03C43.9332 8.97 43.6598 8.91 43.4465 8.85V1.4L44.3765 1.24V4.03ZM44.3765 8.19C44.4698 8.21667 44.5998 8.24333 44.7665 8.27C44.9398 8.29 45.1532 8.3 45.4065 8.3C45.9065 8.3 46.3065 8.13667 46.6065 7.81C46.9065 7.47667 47.0565 7.00667 47.0565 6.4C47.0565 6.13333 47.0298 5.88333 46.9765 5.65C46.9232 5.41667 46.8365 5.21667 46.7165 5.05C46.5965 4.87667 46.4398 4.74333 46.2465 4.65C46.0598 4.55 45.8332 4.5 45.5665 4.5C45.3132 4.5 45.0798 4.54333 44.8665 4.63C44.6532 4.71667 44.4898 4.80667 44.3765 4.9V8.19ZM48.5982 9.97C48.6715 10.0033 48.7649 10.0333 48.8782 10.06C48.9982 10.0933 49.1149 10.11 49.2282 10.11C49.5949 10.11 49.8815 10.0267 50.0882 9.86C50.2949 9.7 50.4815 9.43667 50.6482 9.07C50.2282 8.27 49.8349 7.42333 49.4682 6.53C49.1082 5.63 48.8082 4.72 48.5682 3.8H49.5682C49.6415 4.1 49.7282 4.42333 49.8282 4.77C49.9349 5.11667 50.0515 5.47333 50.1782 5.84C50.3049 6.20667 50.4415 6.57333 50.5882 6.94C50.7349 7.30667 50.8882 7.66 51.0482 8C51.3015 7.3 51.5215 6.60667 51.7082 5.92C51.8949 5.23333 52.0715 4.52667 52.2382 3.8H53.1982C52.9582 4.78 52.6915 5.72333 52.3982 6.63C52.1049 7.53 51.7882 8.37333 51.4482 9.16C51.3149 9.46 51.1749 9.71667 51.0282 9.93C50.8882 10.15 50.7315 10.33 50.5582 10.47C50.3849 10.61 50.1882 10.7133 49.9682 10.78C49.7549 10.8467 49.5115 10.88 49.2382 10.88C49.1649 10.88 49.0882 10.8733 49.0082 10.86C48.9282 10.8533 48.8482 10.84 48.7682 10.82C48.6949 10.8067 48.6249 10.79 48.5582 10.77C48.4982 10.75 48.4549 10.7333 48.4282 10.72L48.5982 9.97Z" fill="white"/>
</svg>
