<svg xmlns="http://www.w3.org/2000/svg" viewBox="0 0 53.65 44.77"><defs><style>.cls-1{fill:#262424;}</style></defs><title>shop-icon</title><g id="Camada_2" data-name="Camada 2"><g id="Layer_1" data-name="Layer 1"><path class="cls-1" d="M45.46,33.3H10.26A2.25,2.25,0,0,1,8,31.05V10.31a2.25,2.25,0,0,1,2.25-2.25H51.4a2.24,2.24,0,0,1,2.16,2.87L47.62,31.67A2.23,2.23,0,0,1,45.46,33.3ZM12.51,28.8H43.76l4.66-16.24H12.51Z"/><path class="cls-1" d="M10.26,12.81a2.48,2.48,0,0,1-1.77-.74L.73,4.26A2.5,2.5,0,0,1,4.27.74L12,8.54a2.51,2.51,0,0,1-1.77,4.27Z"/><path class="cls-1" d="M45.46,22.68H10.26a2,2,0,1,1,0-4h35.2a2,2,0,0,1,0,4Z"/><path class="cls-1" d="M13.82,44.77a6.83,6.83,0,1,1,6.83-6.83A6.83,6.83,0,0,1,13.82,44.77Zm0-9.66a2.83,2.83,0,1,0,2.83,2.83A2.83,2.83,0,0,0,13.82,35.11Z"/><path class="cls-1" d="M41.14,44.77A6.83,6.83,0,1,1,48,37.94,6.84,6.84,0,0,1,41.14,44.77Zm0-9.66A2.83,2.83,0,1,0,44,37.94,2.84,2.84,0,0,0,41.14,35.11Z"/><path class="cls-1" d="M22.72,32a2,2,0,0,1-2-2V10.31a2,2,0,0,1,4,0V30A2,2,0,0,1,22.72,32Z"/><path class="cls-1" d="M35.78,32a2,2,0,0,1-2-2V10.31a2,2,0,0,1,4,0V30A2,2,0,0,1,35.78,32Z"/></g></g></svg>