<svg xmlns="http://www.w3.org/2000/svg" viewBox="0 0 37.43 41.49"><defs><style>.cls-1{fill:#262424;}</style></defs><title>user</title><g id="Camada_2" data-name="Camada 2"><g id="Layer_1" data-name="Layer 1"><path class="cls-1" d="M30.43,20.56A13.63,13.63,0,1,0,7,20.56,18.67,18.67,0,0,0,0,35.14C0,37.82,0,39,0,39a2.49,2.49,0,0,0,2.5,2.49H34.93A2.5,2.5,0,0,0,37.43,39V35.14A18.66,18.66,0,0,0,30.43,20.56ZM18.72,5a8.63,8.63,0,1,1-8.63,8.63A8.64,8.64,0,0,1,18.72,5ZM32.43,36.49H5V35.14a13.71,13.71,0,0,1,5.3-10.82,13.55,13.55,0,0,0,16.83,0,13.71,13.71,0,0,1,5.3,10.82Z"/></g></g></svg>