<svg width="18" height="19" viewBox="0 0 18 19" fill="none" xmlns="http://www.w3.org/2000/svg"><path fill-rule="evenodd" clip-rule="evenodd" d="M9.051 7.239h1.715V4.666h2.571V2.95h-2.571V.378H9.05V2.95H6.48v1.716H9.05v2.573zm-3.428 7.718c-.943 0-1.706.772-1.706 1.715 0 .944.763 1.716 1.706 1.716a1.72 1.72 0 0 0 1.714-1.716 1.72 1.72 0 0 0-1.714-1.715zm8.571 0c-.943 0-1.706.772-1.706 1.715 0 .944.763 1.716 1.706 1.716a1.72 1.72 0 0 0 1.714-1.716 1.72 1.72 0 0 0-1.714-1.715zM5.77 12.17l.025-.103.772-1.398h6.385c.643 0 1.209-.351 1.5-.883l3.309-6.012-1.492-.824h-.008l-.943 1.716-2.366 4.288H6.934l-.111-.232-1.92-4.056-.814-1.716-.806-1.715H.48V2.95h1.714L5.28 9.46 4.123 11.56a1.66 1.66 0 0 0-.214.823A1.72 1.72 0 0 0 5.623 14.1h10.285v-1.716H5.983a.218.218 0 0 1-.214-.214z" fill="#fff"/></svg>