<svg width="19" height="18" viewBox="0 0 19 18" fill="none" xmlns="http://www.w3.org/2000/svg"><path fill-rule="evenodd" clip-rule="evenodd" d="M5.397 14.4c-.99 0-1.79.81-1.79 1.8s.8 1.8 1.79 1.8 1.799-.81 1.799-1.8-.81-1.8-1.799-1.8zM14.392 14.4c-.99 0-1.79.81-1.79 1.8s.8 1.8 1.79 1.8 1.799-.81 1.799-1.8-.81-1.8-1.8-1.8zM5.55 11.475l.027-.108.81-1.467h6.7a1.79 1.79 0 0 0 1.575-.927l3.472-6.309-1.565-.864h-.01l-.989 1.8-2.482 4.5H6.772l-.117-.243L4.641 3.6l-.854-1.8L2.94 0H0v1.8h1.799l3.238 6.831-1.214 2.205a1.74 1.74 0 0 0-.225.864c0 .99.81 1.8 1.799 1.8H16.19v-1.8H5.775a.229.229 0 0 1-.225-.225z" fill="#011627"/></svg>