<svg width="116" height="18" viewBox="0 0 116 18" fill="none" xmlns="http://www.w3.org/2000/svg"><path fill-rule="evenodd" clip-rule="evenodd" d="M0 2a2 2 0 0 1 2-2h21.2a2 2 0 0 1 2 2v14a2 2 0 0 1-2 2H2a2 2 0 0 1-2-2V2z" fill="#fff"/><mask id="a" maskUnits="userSpaceOnUse" x="0" y="0" width="26" height="18"><path fill-rule="evenodd" clip-rule="evenodd" d="M0 2a2 2 0 0 1 2-2h21.2a2 2 0 0 1 2 2v14a2 2 0 0 1-2 2H2a2 2 0 0 1-2-2V2z" fill="#fff"/></mask><g mask="url(#a)"><path fill-rule="evenodd" clip-rule="evenodd" d="M0 0h25.2v18H0V0z" fill="#05AB41"/><path fill-rule="evenodd" clip-rule="evenodd" d="M3.265 9.56a.667.667 0 0 1 0-1.12l8.973-5.806a.667.667 0 0 1 .724 0l8.973 5.806a.667.667 0 0 1 0 1.12l-8.973 5.806a.667.667 0 0 1-.724 0L3.265 9.56z" fill="#FDD216"/><path fill-rule="evenodd" clip-rule="evenodd" d="M12.6 13.2a4.2 4.2 0 1 0 0-8.4 4.2 4.2 0 0 0 0 8.4z" fill="#053087"/><mask id="b" maskUnits="userSpaceOnUse" x="8" y="4" width="9" height="10"><path fill-rule="evenodd" clip-rule="evenodd" d="M12.6 13.2a4.2 4.2 0 1 0 0-8.4 4.2 4.2 0 0 0 0 8.4z" fill="#fff"/></mask><path d="M7.902 7.902c.66-.534 2.787-.028 4.774.502 1.986.53 4.058 1.64 4.585 2.292" stroke="#fff" stroke-width="1.333" stroke-linecap="square" mask="url(#b)"/></g><path fill-rule="evenodd" clip-rule="evenodd" d="M45.6 2a2 2 0 0 1 2-2h21.2a2 2 0 0 1 2 2v14a2 2 0 0 1-2 2H47.6a2 2 0 0 1-2-2V2z" fill="#fff"/><mask id="c" maskUnits="userSpaceOnUse" x="45" y="0" width="26" height="18"><path fill-rule="evenodd" clip-rule="evenodd" d="M45.6 2a2 2 0 0 1 2-2h21.2a2 2 0 0 1 2 2v14a2 2 0 0 1-2 2H47.6a2 2 0 0 1-2-2V2z" fill="#fff"/></mask><g mask="url(#c)"><path fill-rule="evenodd" clip-rule="evenodd" d="M45.6 4.8h25.2V0H45.6v4.8zM45.6 18h25.2v-4.8H45.6V18z" fill="#DD172C"/><path fill-rule="evenodd" clip-rule="evenodd" d="M45.6 13.2h25.2V4.8H45.6v8.4z" fill="#FFD133"/><path fill-rule="evenodd" clip-rule="evenodd" d="M52.2 8.4h1.2V9h-1.2v-.6z" fill="#FFEDB1"/><path d="M51.092 8.494a.333.333 0 0 1 .333-.36h1.55c.195 0 .349.166.333.36l-.14 1.683a.971.971 0 0 1-1.935 0l-.14-1.683z" stroke="#A41517" stroke-width=".667"/><path fill-rule="evenodd" clip-rule="evenodd" d="M51 9h2.4v.6h-.6l-.6 1.2-.6-1.2H51V9zM49.2 7.8a.6.6 0 1 1 1.2 0v3a.6.6 0 1 1-1.2 0v-3zM54 7.8a.6.6 0 1 1 1.2 0v3a.6.6 0 1 1-1.2 0v-3zM51 6.96c0-.53.43-.96.96-.96h.48c.53 0 .96.43.96.96a.24.24 0 0 1-.24.24h-1.92a.24.24 0 0 1-.24-.24z" fill="#A41517"/></g><path fill-rule="evenodd" clip-rule="evenodd" d="M90 2a2 2 0 0 1 2-2h21.2a2 2 0 0 1 2 2v14a2 2 0 0 1-2 2H92a2 2 0 0 1-2-2V2z" fill="#fff"/><mask id="d" maskUnits="userSpaceOnUse" x="90" y="0" width="26" height="18"><path fill-rule="evenodd" clip-rule="evenodd" d="M90 2a2 2 0 0 1 2-2h21.2a2 2 0 0 1 2 2v14a2 2 0 0 1-2 2H92a2 2 0 0 1-2-2V2z" fill="#fff"/></mask><g mask="url(#d)"><path fill-rule="evenodd" clip-rule="evenodd" d="M90 0h25.2v18H90V0z" fill="#0A17A7"/><path fill-rule="evenodd" clip-rule="evenodd" d="M96.006 12l-8.502 5.735 1.342 1.99L99.6 12.47v6.73h6v-6.73l10.754 7.254 1.342-1.99L109.194 12h6.006V6h-6.007l8.503-5.735-1.342-1.99L105.6 5.53V-1.2h-6v6.729L88.846-1.725 87.504.265 96.006 6H90v6h6.006z" fill="#fff"/><path d="M106.801 5.699L118.2-1.8M108.012 12.328l10.218 6.887M97.205 5.68L86.546-1.505M98.361 12.244L86.546 20.08" stroke="#DB1F35" stroke-width=".667" stroke-linecap="round"/><path fill-rule="evenodd" clip-rule="evenodd" d="M90 10.8h10.8V18h3.6v-7.2h10.8V7.2h-10.8V0h-3.6v7.2H90v3.6z" fill="#E6273E"/></g></svg>