<svg width="82" height="73" viewBox="0 0 82 73" fill="none" xmlns="http://www.w3.org/2000/svg"><path d="M82 72.04L.64 0H82v72.04z" fill="#FF9F1C"/><path d="M44.175 22.25c0 .656.08 1.255.242 1.797.161.53.392.985.691 1.365.312.369.686.657 1.124.864a3.43 3.43 0 0 0 1.486.312 3.39 3.39 0 0 0 1.47-.312 3.133 3.133 0 0 0 1.106-.864 3.94 3.94 0 0 0 .709-1.365c.16-.542.242-1.141.242-1.798s-.081-1.25-.242-1.78c-.162-.542-.398-.997-.71-1.366-.299-.38-.667-.674-1.105-.881a3.39 3.39 0 0 0-1.47-.311 3.43 3.43 0 0 0-1.486.31 3.215 3.215 0 0 0-1.124.882c-.3.38-.53.836-.691 1.366a6.105 6.105 0 0 0-.242 1.78zm9.351 0c0 1.025-.156 1.93-.467 2.713-.3.783-.714 1.44-1.244 1.97-.519.519-1.13.91-1.832 1.176a6.317 6.317 0 0 1-2.247.397c-.795 0-1.55-.132-2.265-.397a5.28 5.28 0 0 1-1.85-1.176c-.518-.53-.933-1.187-1.244-1.97-.31-.784-.466-1.688-.466-2.714 0-1.025.155-1.924.466-2.696.311-.784.732-1.44 1.262-1.97a5.33 5.33 0 0 1 1.867-1.193 6.268 6.268 0 0 1 2.23-.398c.783 0 1.527.133 2.23.398a4.997 4.997 0 0 1 1.832 1.192c.53.53.95 1.187 1.261 1.97.312.773.467 1.672.467 2.697zm2.39 5.997V16.268h7.57v1.85h-5.393v3.06h4.788v1.849h-4.788v5.22h-2.178zm9.52 0V16.268h7.57v1.85h-5.393v3.06h4.788v1.849h-4.788v5.22h-2.177z" fill="#fff"/></svg>