<svg width="107" height="30" viewBox="0 0 107 30" fill="none" xmlns="http://www.w3.org/2000/svg"><path d="M20.558 6.711c-.89.508-1.532 1.16-1.96 1.995a5.23 5.23 0 0 0-.64 2.503v12.697h5.807V11.608c0-.725.392-1.088 1.176-1.088h2.957l1.14-4.57h-5.13c-1.354 0-2.494.253-3.35.761zm39.336 17.195H65.7V8.38h-5.807v15.526zM14.68 7.546c-1.176-1.089-2.708-1.597-4.632-1.597-1.746 0-5.31 0-10.048.036V30h5.808v-6.13c3.42.217 6.805-.327 8.872-2.649.712-.762 1.247-1.596 1.46-2.684.214-1.088.321-1.125.321-2.72v-1.633c0-1.596-.107-2.902-.32-3.99-.214-1.053-.713-1.96-1.461-2.649zM10.475 18.21a2.824 2.824 0 0 1-2.458 1.379c-1.71 0-2.245-.036-2.245-.036V10.41l.356-.145c.784 0 2.031-.036 2.78-.036 1.781 0 2.244 1.306 2.244 4.208 0 1.705-.25 3.047-.677 3.772zM49.846.762c-.89.508-1.532 1.16-1.96 1.995a5.23 5.23 0 0 0-.64 2.503v18.646h5.807V12.55H57.4V8.38h-4.347V5.659c0-.726.392-1.088 1.176-1.088h3.17V0h-4.24c-1.317 0-2.422.254-3.313.762zm-6.484 7.436c-.677-.653-1.497-1.197-2.53-1.632-.998-.435-2.21-.653-3.634-.653-1.426 0-2.601.218-3.635.653-.997.435-1.852.98-2.494 1.632a7.695 7.695 0 0 0-1.247 1.705c-.32.617-.534 1.306-.641 2.104-.143.798-.178 1.778-.178 3.011s.071 2.213.178 3.011c.142.798.356 1.487.641 2.104.32.617.713 1.16 1.247 1.705 1.497 1.523 3.563 2.285 6.129 2.285 2.565 0 4.596-.762 6.128-2.285a6.821 6.821 0 0 0 1.639-2.684c.285-.98.463-2.358.463-4.136 0-1.741-.142-3.12-.463-4.099-.25-1.016-.82-1.923-1.603-2.72zm-3.884 9.214c-.107.544-.32.98-.677 1.306-.356.327-.855.508-1.568.508-.677 0-1.211-.181-1.567-.508-.357-.326-.57-.798-.677-1.378-.107-.58-.179-1.342-.179-2.286 0-.943.072-1.704.178-2.321.107-.58.321-1.052.678-1.379.356-.326.89-.508 1.567-.508.677 0 1.212.182 1.568.508.356.29.57.726.677 1.306.107.58.178 1.379.178 2.394-.036.98-.071 1.778-.178 2.358zM65.666 0h-5.843v4.534h5.843V0zM78.1 12.551V8.38h-4.169V1.56l-5.808 1.56v15.526c0 .87.214 1.705.642 2.503a4.978 4.978 0 0 0 1.96 1.995c.89.508 1.995.762 3.313.762H78.1v-4.571h-2.993c-.784 0-1.176-.363-1.176-1.088V12.55h4.169z" fill="#000"/><path d="M106.391 14.51L93.814 1.741c-.891-.907-2.601-1.56-3.848-1.56H82.66c-1.247 0-2.422.907-2.422 2.177V9.83c0 .943.463 2.104.997 3.047.285-1.886 1.07-3.41 2.245-4.607 1.568-1.596 3.634-2.394 6.2-2.394 1.781 0 3.349.362 4.631 1.124 1.283.762 2.352 1.741 3.029 3.011a9.094 9.094 0 0 1 1.069 4.317v2.575H86.866c0 .726.285 1.343.89 1.887.606.544 1.426.762 2.459.762.962 0 1.71-.146 2.28-.363.535-.218 1.105-.617 1.64-1.125l3.491 3.229c-1.033.98-2.102 1.705-3.207 2.14-.712.29-1.532.472-2.494.58l2.637 2.685c.392.399.997.653 1.567.653s1.176-.254 1.604-.653l8.622-8.851c.392-.4.642-1.016.642-1.633a2.327 2.327 0 0 0-.606-1.705z" fill="#FF9F1C"/><path d="M91.284 10.665c-.427-.254-.962-.399-1.603-.399s-1.176.145-1.604.4a2.09 2.09 0 0 0-.89 1.051c-.214.4-.321.726-.321 1.451h5.665c0-.725-.107-1.052-.32-1.45-.179-.364-.5-.799-.927-1.053z" fill="#FF9F1C"/></svg>